<svg version="1" xmlns="http://www.w3.org/2000/svg" width="933.333" height="933.333" viewBox="0 0 700.000000 700.000000"><path d="M327 1.1c-71.3 4.5-139.4 31-196.5 76.5-14.1 11.3-41.6 38.8-52.9 52.9C12.9 211.6-12.6 314.1 6.5 416c10.3 55 35 108.1 71.1 153.5 11.3 14.1 38.8 41.6 52.9 52.9 81.1 64.7 183.6 90.2 285.5 71.1 55-10.3 108.1-35 153.5-71.1 14.1-11.3 41.6-38.8 52.9-52.9 69.3-87 93.4-197.6 66.5-306-11.6-46.7-34.9-93.3-66.5-133-11.3-14.1-38.8-41.6-52.9-52.9-58.1-46.3-124.8-72-199-76.6-17.7-1.1-25-1.1-43.5.1zm103 214.3c0 .8-13.5 68.1-30 149.6-16.5 81.6-30 148.7-30 149.2 0 .4-8.6.8-19 .8h-19l.5-2.2c.3-1.3 13.8-68 30-148.3 16.2-80.3 29.7-147 30-148.3.5-2.2.7-2.2 19-2.2 15.1 0 18.5.3 18.5 1.4zm-184 71.1v24.4l-14.2 4.5c-7.9 2.5-21.5 6.7-30.3 9.4-8.8 2.8-25.9 8.4-38 12.4-18 6.2-21.6 7.7-20 8.5 3.2 1.7 43.9 15 74 24.3l28 8.6.3 24.2c.2 18.6 0 24.2-1 24.2-.7 0-37.6-13.8-82-30.8L82 365.5v-41l81.3-31.1c44.6-17.2 81.5-31.2 82-31.3.4 0 .7 10.9.7 24.4zm292.5 8.3c41.8 16 76.8 29.3 77.8 29.7 1.6.7 1.7 2.4 1.5 20.7l-.3 20.1-79.5 30.3c-43.7 16.7-80.3 30.6-81.2 30.9-1.7.6-1.8-1-1.8-23.4v-24l8.8-2.6c46.4-14.1 93.4-29.7 93.9-31.2.4-1.2-32-12.4-74.2-25.4l-28-8.7-.3-24-.2-24.1 3.7 1.3c2.1.8 38 14.4 79.8 30.4z"/></svg>